<?xml version="1.0" encoding="UTF-8" standalone="no"?>
<!-- Created with Inkscape (http://www.inkscape.org/) -->

<svg
   version="1.1"
   id="svg1"
   width="7412.5376"
   height="2867.877"
   viewBox="0 0 7412.5374 2867.877"
   xml:space="preserve"
   xmlns="http://www.w3.org/2000/svg"
   xmlns:svg="http://www.w3.org/2000/svg"><defs
     id="defs1" /><path
     id="path12"
     style="fill:#ffffff;fill-opacity:1;stroke:#ffffff;stroke-width:30;stroke-linecap:round;stroke-linejoin:round;stroke-dasharray:none;stroke-opacity:1;paint-order:stroke fill markers"
     d="m 1446.9469,383.9995 c 0,0 295.7651,41.3296 936.3743,36.1635 0,0 396.8889,21.5131 422.72,-336.2464 L 357.26098,67.4492 c 0,0 -338.386298,0.9688 -342.260998,384.5593 0,0 272.517198,-50.3704 380.361698,-49.0789 L 1251.283,383.9733 m -224.4399,800.6846 c 0,0 257.2739,-141.5006 636.7529,0 v 1472.1784 c -45.9584,244.7945 -596.8379,234.4085 -636.7529,0 z m 2267.4527,1668.219 c -53.9497,0 -120.1607,-4.2914 -198.633,-12.8744 -77.2461,-7.3567 -157.5576,-20.8441 -240.9344,-40.4623 -82.1507,-18.3918 -159.3968,-44.1407 -231.7385,-77.2461 -72.3417,-34.3317 -131.1959,-77.2462 -176.5627,-128.7436 -45.3668,-51.4974 -68.0502,-114.03 -68.0502,-187.5979 0,-51.4974 11.0352,-106.0601 33.1055,-163.6882 22.0703,-58.8542 53.9497,-104.221 95.6381,-136.1005 42.9145,123.8392 114.0301,219.4773 213.3466,286.9144 100.5426,67.4371 213.3465,114.03 338.4117,139.7787 126.2913,24.5226 247.0651,36.7839 362.3213,36.7839 53.9497,0 118.3215,-4.2915 193.1154,-12.8743 74.7939,-9.8091 148.3617,-26.9748 220.7033,-51.4975 72.3417,-24.5226 132.422,-59.4673 180.2411,-104.8341 49.0451,-45.3667 73.5677,-104.221 73.5677,-176.5626 0,-73.5678 -25.7487,-142.2311 -77.2461,-205.9898 -51.4975,-63.7587 -115.2562,-122.6129 -191.2762,-176.5626 -76.0201,-53.9497 -153.8793,-101.7688 -233.5777,-143.4572 -78.4723,-42.9145 -145.2963,-79.0854 -200.4722,-108.5125 -79.6984,-42.9144 -163.0752,-89.5074 -250.1304,-139.7786 -87.0552,-50.2714 -168.5928,-107.2864 -244.6128,-171.0452 -74.7939,-63.7587 -136.1004,-136.1004 -183.9195,-217.0249 -46.5929,-82.1507 -69.8894,-175.3364 -69.8894,-279.5575 0,-145.9095 34.3316,-267.9093 102.9949,-365.9996 69.8894,-98.0904 160.0099,-176.5628 270.3616,-235.4169 C 3122.6377,121.6733 3242.7984,79.3718 3371.542,53.6231 3500.2856,27.8744 3624.1247,15 3743.0592,15 c 53.9497,0 117.7085,4.9046 191.2762,14.7136 74.7939,9.8092 148.3617,26.975 220.7033,51.4975 72.3417,24.5226 132.422,59.4673 180.2411,104.8341 47.8191,45.3667 71.7286,104.221 71.7286,176.5626 0,45.3668 -9.8091,94.412 -29.4272,147.1356 -18.3919,52.7235 -45.9798,93.1858 -82.7637,121.3868 -46.5929,-79.6985 -115.2562,-141.618 -205.9898,-185.7586 -90.7335,-45.3668 -187.5978,-77.2462 -290.5927,-95.6382 -101.7687,-18.3919 -195.5676,-27.5879 -281.3967,-27.5879 -50.2713,0 -109.1255,4.9044 -176.5626,14.7136 -66.211,9.809 -131.1959,26.9749 -194.9546,51.4974 -62.5326,24.5225 -114.6431,58.8542 -156.3315,102.9949 -41.6885,42.9145 -62.5327,97.4773 -62.5327,163.6882 0,57.6281 19.005,111.5778 57.0151,161.8492 39.2361,49.0451 87.6682,94.4119 145.2963,136.1003 57.6281,41.6884 116.4824,79.0854 176.5627,112.1909 60.0803,31.8793 112.1908,60.0803 156.3315,84.6029 88.2813,47.8191 185.7586,101.1557 292.4319,160.0099 107.8994,58.8542 211.5073,125.6783 310.8238,200.4722 99.3165,73.5678 180.8542,156.3315 244.6129,248.2912 63.7587,91.9597 95.6381,195.5677 95.6381,310.8239 0,141.0049 -34.9447,261.1655 -104.8341,360.482 -69.8894,99.3165 -161.2361,180.2411 -274.04,242.7737 -112.8039,62.5326 -233.5776,107.8994 -362.3212,136.1004 -128.7436,29.4271 -251.9696,44.1406 -369.6781,44.1407 z m 1478.7123,-384.3916 c 0,36.7839 8.5829,71.7286 25.7487,104.8341 17.1658,33.1055 38.01,62.5326 62.5326,88.2813 -40.4623,34.3316 -91.9597,69.2763 -154.4923,104.8341 -62.5326,34.3316 -124.4521,51.4974 -185.7586,51.4974 -98.0904,0 -147.1356,-52.7236 -147.1356,-158.1707 0,-80.9245 20.8442,-168.5928 62.5326,-263.0048 42.9145,-94.4119 95.6381,-189.437 158.1707,-285.0751 63.7587,-95.6381 128.7436,-186.3716 194.9546,-272.2007 66.211,-85.8291 123.8391,-160.623 172.8843,-224.3817 l 194.9546,-257.4872 c 64.9849,-85.8291 128.1305,-172.2712 189.437,-259.3264 52.7235,-73.5678 113.4169,-158.7838 182.0802,-255.648 68.6633,-98.0904 128.7436,-198.633 180.2411,-301.6279 52.7235,-104.221 79.0853,-202.3114 79.0853,-294.2711 0,-26.9748 -3.0653,-53.3366 -9.1959,-79.0853 -6.1307,-25.7487 -14.1005,-50.8844 -23.9096,-75.407 36.7839,-17.1658 79.0854,-33.7185 126.9044,-49.6582 47.8191,-15.9397 91.9597,-23.9096 132.422,-23.9096 112.8039,0 201.0853,20.8442 264.844,62.5326 63.7587,40.4623 123.8391,108.5125 180.241,204.1506 50.2713,84.6029 88.2814,181.4672 114.0301,290.5927 25.7487,109.1255 45.3668,220.0903 58.8542,332.8942 14.7135,112.8039 28.814,217.6379 42.3015,314.5022 15.9397,110.3517 34.9447,228.0601 57.015,353.1253 23.2965,125.0652 52.7236,247.6781 88.2813,367.8388 36.7839,120.1607 82.7638,228.6732 137.9396,325.5374 47.8191,82.1507 112.1909,153.2663 193.1154,213.3466 82.1507,58.8542 164.3013,109.7386 246.452,152.6531 -28.2009,39.2361 -66.824,79.6984 -115.8692,121.3868 -47.8191,40.4623 -97.4773,60.6934 -148.9747,60.6934 -136.1004,0 -241.5476,-29.4271 -316.3415,-88.2813 -74.7939,-60.0803 -143.4571,-146.5225 -205.9897,-259.3264 -40.4623,-72.3416 -74.1808,-145.2963 -101.1557,-218.8641 -26.9749,-74.7939 -49.0452,-150.2009 -66.211,-226.2209 -132.422,9.8091 -265.4571,15.9397 -399.1052,18.3919 -133.6481,2.4523 -266.6831,3.6784 -399.1051,3.6784 -116.4823,0 -232.3516,-1.2261 -347.6078,-3.6784 -115.2561,-3.6783 -230.5123,-9.809 -345.7685,-18.3919 -51.4974,87.0552 -94.4119,169.2059 -128.7436,246.452 -33.1055,76.0201 -49.6582,141.618 -49.6582,196.7938 z m 976.6121,-662.1099 c 107.8994,0 215.7988,1.2261 323.6982,3.6784 l 327.3766,3.6784 c -23.2965,-142.2311 -42.9145,-285.0753 -58.8542,-428.5323 -14.7135,-144.6833 -38.01,-287.5274 -69.8894,-428.5323 -30.6532,-141.0049 -80.9245,-278.9444 -150.8139,-413.8187 -23.2965,-44.1407 -51.4974,-89.5075 -84.6029,-136.1004 -68.6633,148.3617 -148.9748,289.9796 -240.9345,424.8539 -91.9597,133.6481 -183.9194,265.4571 -275.8791,395.4268 -44.1407,62.5326 -106.0602,145.2963 -185.7587,248.2912 -78.4723,102.9948 -156.9445,211.5073 -235.4168,325.5374 106.6733,2.4523 213.9596,4.2915 321.859,5.5176 z" /><path
     id="path14"
     style="fill:none;fill-opacity:1;stroke:#ffffff;stroke-width:70;stroke-linecap:butt;stroke-linejoin:round;stroke-dasharray:none;stroke-opacity:1;paint-order:stroke fill markers"
     d="m 1465.9958,380.9128 55.6001,767.7935 M 1231.6342,380.5 l -70.7798,774.7454" /></svg>
